<?xml version="1.0" encoding="UTF-8" standalone="no"?>
<!-- Created with Inkscape (http://www.inkscape.org/) -->

<svg
   xmlns:dc="http://purl.org/dc/elements/1.1/"
   xmlns:cc="http://creativecommons.org/ns#"
   xmlns:rdf="http://www.w3.org/1999/02/22-rdf-syntax-ns#"
   xmlns:svg="http://www.w3.org/2000/svg"
   xmlns="http://www.w3.org/2000/svg"
   xmlns:sodipodi="http://sodipodi.sourceforge.net/DTD/sodipodi-0.dtd"
   xmlns:inkscape="http://www.inkscape.org/namespaces/inkscape"
   width="500"
   height="500"
   viewBox="0 0 132.29166 132.29167"
   version="1.1"
   id="svg8"
   inkscape:version="0.92.2pre0 (973e216, 2017-07-25)"
   sodipodi:docname="JumperLuko2.svg"
   inkscape:export-filename="/home/luko/public_html/jumperl/JumperLuko.png"
   inkscape:export-xdpi="98.303993"
   inkscape:export-ydpi="98.303993">
  <defs
     id="defs2" />
  <sodipodi:namedview
     id="base"
     pagecolor="#ffffff"
     bordercolor="#666666"
     borderopacity="1.0"
     inkscape:pageopacity="0.0"
     inkscape:pageshadow="2"
     inkscape:zoom="1.4142136"
     inkscape:cx="262.85056"
     inkscape:cy="236.41608"
     inkscape:document-units="px"
     inkscape:current-layer="layer4"
     showgrid="false"
     inkscape:window-width="1920"
     inkscape:window-height="1009"
     inkscape:window-x="0"
     inkscape:window-y="0"
     inkscape:window-maximized="1"
     inkscape:object-paths="true"
     inkscape:snap-intersection-paths="true"
     inkscape:snap-smooth-nodes="true"
     inkscape:snap-midpoints="true"
     inkscape:snap-global="true"
     inkscape:object-nodes="true"
     units="px"
     inkscape:snap-page="true"
     inkscape:snap-nodes="true"
     inkscape:snap-bbox="false"
     inkscape:bbox-paths="true"
     inkscape:bbox-nodes="true"
     inkscape:snap-bbox-midpoints="true"
     inkscape:snap-bbox-edge-midpoints="true" />
  <metadata
     id="metadata5">
    <rdf:RDF>
      <cc:Work
         rdf:about="">
        <dc:format>image/svg+xml</dc:format>
        <dc:type
           rdf:resource="http://purl.org/dc/dcmitype/StillImage" />
        <dc:title></dc:title>
      </cc:Work>
    </rdf:RDF>
  </metadata>
  <g
     inkscape:groupmode="layer"
     id="layer4"
     inkscape:label="JumperLuko"
     style="display:inline"
     transform="translate(0,-164.70832)">
    <g
       id="g971">
      <path
         sodipodi:nodetypes="cccccc"
         inkscape:connector-curvature="0"
         id="path938"
         d="M 0.42657884,208.35352 0,208.57031 -8.158092e-7,208.78711 50.923828,244.85156 l 0.304688,-0.43164 z"
         style="color:#000000;font-style:normal;font-variant:normal;font-weight:normal;font-stretch:normal;font-size:medium;line-height:normal;font-family:sans-serif;font-variant-ligatures:normal;font-variant-position:normal;font-variant-caps:normal;font-variant-numeric:normal;font-variant-alternates:normal;font-feature-settings:normal;text-indent:0;text-align:start;text-decoration:none;text-decoration-line:none;text-decoration-style:solid;text-decoration-color:#000000;letter-spacing:normal;word-spacing:normal;text-transform:none;writing-mode:lr-tb;direction:ltr;text-orientation:mixed;dominant-baseline:auto;baseline-shift:baseline;text-anchor:start;white-space:normal;shape-padding:0;clip-rule:nonzero;display:inline;overflow:visible;visibility:visible;opacity:1;isolation:auto;mix-blend-mode:normal;color-interpolation:sRGB;color-interpolation-filters:linearRGB;solid-color:#000000;solid-opacity:1;vector-effect:none;fill:#404c24;fill-opacity:1;fill-rule:evenodd;stroke:none;stroke-width:0.52916664;stroke-linecap:butt;stroke-linejoin:miter;stroke-miterlimit:4;stroke-dasharray:none;stroke-dashoffset:0;stroke-opacity:1;color-rendering:auto;image-rendering:auto;shape-rendering:auto;text-rendering:auto;enable-background:accumulate" />
      <path
         sodipodi:nodetypes="cccccc"
         inkscape:connector-curvature="0"
         id="path915"
         d="m 85.593278,264.82031 -12.35109,6.38867 0.240234,0.47266 12.444648,-6.39062 v -0.23501 z"
         style="color:#000000;font-style:normal;font-variant:normal;font-weight:normal;font-stretch:normal;font-size:medium;line-height:normal;font-family:sans-serif;font-variant-ligatures:normal;font-variant-position:normal;font-variant-caps:normal;font-variant-numeric:normal;font-variant-alternates:normal;font-feature-settings:normal;text-indent:0;text-align:start;text-decoration:none;text-decoration-line:none;text-decoration-style:solid;text-decoration-color:#000000;letter-spacing:normal;word-spacing:normal;text-transform:none;writing-mode:lr-tb;direction:ltr;text-orientation:mixed;dominant-baseline:auto;baseline-shift:baseline;text-anchor:start;white-space:normal;shape-padding:0;clip-rule:nonzero;display:inline;overflow:visible;visibility:visible;opacity:1;isolation:auto;mix-blend-mode:normal;color-interpolation:sRGB;color-interpolation-filters:linearRGB;solid-color:#000000;solid-opacity:1;vector-effect:none;fill:#363f1d;fill-opacity:1;fill-rule:evenodd;stroke:none;stroke-width:0.52916664;stroke-linecap:butt;stroke-linejoin:miter;stroke-miterlimit:4;stroke-dasharray:none;stroke-dashoffset:0;stroke-opacity:1;color-rendering:auto;image-rendering:auto;shape-rendering:auto;text-rendering:auto;enable-background:accumulate" />
      <path
         inkscape:connector-curvature="0"
         id="path888"
         d="m 73.362806,271.44531 v -8.07078 l 5.919778,-3.01038"
         style="fill:none;fill-rule:evenodd;stroke:#363f1d;stroke-width:0.79374999;stroke-linecap:butt;stroke-linejoin:miter;stroke-opacity:1;stroke-miterlimit:4;stroke-dasharray:none" />
      <path
         style="color:#000000;font-style:normal;font-variant:normal;font-weight:normal;font-stretch:normal;font-size:medium;line-height:normal;font-family:sans-serif;font-variant-ligatures:normal;font-variant-position:normal;font-variant-caps:normal;font-variant-numeric:normal;font-variant-alternates:normal;font-feature-settings:normal;text-indent:0;text-align:start;text-decoration:none;text-decoration-line:none;text-decoration-style:solid;text-decoration-color:#000000;letter-spacing:normal;word-spacing:normal;text-transform:none;writing-mode:lr-tb;direction:ltr;text-orientation:mixed;dominant-baseline:auto;baseline-shift:baseline;text-anchor:start;white-space:normal;shape-padding:0;clip-rule:nonzero;display:inline;overflow:visible;visibility:visible;opacity:1;isolation:auto;mix-blend-mode:normal;color-interpolation:sRGB;color-interpolation-filters:linearRGB;solid-color:#000000;solid-opacity:1;vector-effect:none;fill:#363f1d;fill-opacity:1;fill-rule:evenodd;stroke:none;stroke-width:0.26458332px;stroke-linecap:butt;stroke-linejoin:miter;stroke-miterlimit:4;stroke-dasharray:none;stroke-dashoffset:0;stroke-opacity:1;color-rendering:auto;image-rendering:auto;shape-rendering:auto;text-rendering:auto;enable-background:accumulate"
         d="m 66.102397,255.34038 0,31.29581 0.13183,0.0938 0.13184,-0.0675 0,-31.3221 z"
         id="path909"
         inkscape:connector-curvature="0"
         sodipodi:nodetypes="cccccc" />
      <path
         sodipodi:nodetypes="cccccc"
         inkscape:connector-curvature="0"
         id="path904"
         d="m 112.4668,251.49219 v 11.56638 l 0.13183,0.0938 0.13184,-0.0675 v -11.59267 z"
         style="color:#000000;font-style:normal;font-variant:normal;font-weight:normal;font-stretch:normal;font-size:medium;line-height:normal;font-family:sans-serif;font-variant-ligatures:normal;font-variant-position:normal;font-variant-caps:normal;font-variant-numeric:normal;font-variant-alternates:normal;font-feature-settings:normal;text-indent:0;text-align:start;text-decoration:none;text-decoration-line:none;text-decoration-style:solid;text-decoration-color:#000000;letter-spacing:normal;word-spacing:normal;text-transform:none;writing-mode:lr-tb;direction:ltr;text-orientation:mixed;dominant-baseline:auto;baseline-shift:baseline;text-anchor:start;white-space:normal;shape-padding:0;clip-rule:nonzero;display:inline;overflow:visible;visibility:visible;opacity:1;isolation:auto;mix-blend-mode:normal;color-interpolation:sRGB;color-interpolation-filters:linearRGB;solid-color:#000000;solid-opacity:1;vector-effect:none;fill:#1f2410;fill-opacity:1;fill-rule:evenodd;stroke:none;stroke-width:0.26458332px;stroke-linecap:butt;stroke-linejoin:miter;stroke-miterlimit:4;stroke-dasharray:none;stroke-dashoffset:0;stroke-opacity:1;color-rendering:auto;image-rendering:auto;shape-rendering:auto;text-rendering:auto;enable-background:accumulate" />
      <path
         inkscape:connector-curvature="0"
         style="display:inline;fill:none;fill-opacity:1;fill-rule:evenodd;stroke:#1f2410;stroke-width:0.52916666;stroke-linecap:butt;stroke-linejoin:miter;stroke-miterlimit:4.375;stroke-dasharray:none;stroke-opacity:1;paint-order:stroke fill markers"
         d="m 87.899729,218.2948 c -9.481614,-0.13092 -19.936319,5.45295 -20.25561,11.10172 6.650858,-3.87654 17.224798,-5.55542 23.721712,-0.96787 l 21.232889,14.99336 v -11.66016 l -5.29849,-3.7413 v 3.93729 l -9.859998,-6.96173 v -3.93863 c -2.674811,-1.88878 -6.041719,-2.71437 -9.540503,-2.76268 z"
         id="path902" />
      <path
         sodipodi:nodetypes="cc"
         inkscape:connector-curvature="0"
         id="path900"
         d="m 80.627814,241.58383 -19.692841,10.01457 5.299254,3.74198 19.69284,-10.01457 z"
         style="fill:none;fill-opacity:1;fill-rule:evenodd;stroke:#566830;stroke-width:0.52916666;stroke-linecap:butt;stroke-linejoin:miter;stroke-miterlimit:4.375;stroke-dasharray:none;stroke-opacity:1" />
      <path
         sodipodi:nodetypes="cccc"
         style="fill:none;fill-rule:evenodd;stroke:#363f1d;stroke-width:0.26458332px;stroke-linecap:butt;stroke-linejoin:miter;stroke-opacity:1"
         d="m 51.075718,244.63599 19.692186,-10.01481 10e-7,3.9377 -19.692186,10.01481"
         id="path896"
         inkscape:connector-curvature="0" />
      <path
         inkscape:connector-curvature="0"
         id="path890"
         d="m 66.234227,255.34039 -5.299252,-3.74199 4.71e-4,3.93759 -9.859728,-6.9623 0,-3.9377"
         style="fill:none;fill-rule:evenodd;stroke:#404c24;stroke-width:0.26458332px;stroke-linecap:butt;stroke-linejoin:miter;stroke-opacity:1" />
      <path
         id="path1112"
         d="m 81.167547,225.66462 c -4.79986,0.0657 -9.782319,1.55135 -13.523428,3.7319 -0.101519,1.79562 0.819594,3.59759 3.123785,5.22466 v 1.31824 c 3.377961,-1.39786 7.291806,-2.25626 11.058771,-2.20423 3.498776,0.0483 6.864304,0.87522 9.539156,2.76402 l 21.232889,14.99337 12.56495,-6.38987 v -8.07056 l -12.56495,6.38986 -21.232889,-14.99336 c -2.842399,-2.00705 -6.465056,-2.81514 -10.198284,-2.76403 z"
         style="fill:#13160a;fill-opacity:1;fill-rule:evenodd;stroke:#13160a;stroke-width:0.79374999;stroke-linecap:square;stroke-linejoin:miter;stroke-miterlimit:4.375;stroke-dasharray:none;stroke-opacity:1;paint-order:stroke fill markers"
         inkscape:connector-curvature="0" />
      <path
         sodipodi:nodetypes="ccccc"
         inkscape:connector-curvature="0"
         id="path5022"
         d="m 80.627632,245.52118 -19.692186,10.01481 -9.859728,-6.9623 19.692186,-10.01481 z"
         style="fill:#4b5a2a;fill-opacity:1;fill-rule:evenodd;stroke:none;stroke-width:0.05291667;stroke-linecap:butt;stroke-linejoin:miter;stroke-miterlimit:4.375;stroke-dasharray:none;stroke-opacity:1" />
      <path
         sodipodi:nodetypes="ccccscccc"
         inkscape:connector-curvature="0"
         id="path4949"
         d="m 70.767904,235.93942 c 3.377961,-1.39787 7.291806,-2.25626 11.058771,-2.20423 3.498776,0.0483 6.864346,0.87524 9.539203,2.76404 l 21.232952,14.99316 V 263.1518 L 91.365927,248.15837 c -1.604271,-1.1331 -3.457997,-1.87891 -5.438197,-2.30793 l -6.65e-4,-0.52463 -5.299249,-3.74198 -3.241599,1.64847 -6.618313,-4.67341 z"
         style="fill:#1f2410;fill-opacity:1;fill-rule:evenodd;stroke:none;stroke-width:0.05291667;stroke-linecap:butt;stroke-linejoin:miter;stroke-miterlimit:4.375;stroke-dasharray:none;stroke-opacity:1" />
      <path
         inkscape:connector-curvature="0"
         id="path850"
         d="M 85.927069,252.63089 109.01403,240.89027"
         style="fill:none;fill-rule:evenodd;stroke:#dcdcdc;stroke-width:0.26458332px;stroke-linecap:butt;stroke-linejoin:miter;stroke-opacity:1" />
      <path
         sodipodi:nodetypes="ccccc"
         inkscape:connector-curvature="0"
         id="path1068"
         d="m 85.92707,252.63089 23.08696,-11.74062 1.86705,1.31838 -24.95401,12.69009 z"
         style="fill:#c8c8c8;fill-opacity:1;fill-rule:evenodd;stroke:none;stroke-width:0.05291667;stroke-linecap:butt;stroke-linejoin:miter;stroke-miterlimit:4.375;stroke-dasharray:none;stroke-opacity:1" />
      <path
         sodipodi:nodetypes="cccccc"
         inkscape:connector-curvature="0"
         id="path934"
         d="m 116.79823,210.80741 -19.478118,10.01374 0.24024,0.47266 19.571678,-10.01569 v -0.23501 z"
         style="color:#000000;font-style:normal;font-variant:normal;font-weight:normal;font-stretch:normal;font-size:medium;line-height:normal;font-family:sans-serif;font-variant-ligatures:normal;font-variant-position:normal;font-variant-caps:normal;font-variant-numeric:normal;font-variant-alternates:normal;font-feature-settings:normal;text-indent:0;text-align:start;text-decoration:none;text-decoration-line:none;text-decoration-style:solid;text-decoration-color:#000000;letter-spacing:normal;word-spacing:normal;text-transform:none;writing-mode:lr-tb;direction:ltr;text-orientation:mixed;dominant-baseline:auto;baseline-shift:baseline;text-anchor:start;white-space:normal;shape-padding:0;clip-rule:nonzero;display:inline;overflow:visible;visibility:visible;opacity:1;isolation:auto;mix-blend-mode:normal;color-interpolation:sRGB;color-interpolation-filters:linearRGB;solid-color:#000000;solid-opacity:1;vector-effect:none;fill:#363f1d;fill-opacity:1;fill-rule:evenodd;stroke:none;stroke-width:0.52916664;stroke-linecap:butt;stroke-linejoin:miter;stroke-miterlimit:4;stroke-dasharray:none;stroke-dashoffset:0;stroke-opacity:1;color-rendering:auto;image-rendering:auto;shape-rendering:auto;text-rendering:auto;enable-background:accumulate" />
      <path
         sodipodi:nodetypes="ccccccc"
         inkscape:connector-curvature="0"
         id="rect868"
         d="M 117.13203,211.04311 66.057395,174.97794 1.1867933e-4,208.57039 51.075718,244.63599 70.768,234.62147 c -12.227616,-8.63432 14.444141,-22.19795 26.671847,-13.56355 z"
         style="opacity:1;fill:#566830;fill-opacity:1;stroke:none;stroke-width:0.05291667;stroke-linecap:butt;stroke-linejoin:miter;stroke-miterlimit:4.375;stroke-dasharray:none;stroke-opacity:1" />
      <path
         sodipodi:nodetypes="cccccccc"
         inkscape:connector-curvature="0"
         id="path949"
         d="m 66.234227,255.34039 19.69284,-10.01458 3e-6,11.65942 -12.564265,6.3893 v 8.07078 l 12.564265,-6.3893 -3e-6,11.65943 -19.69284,10.01455 z"
         style="fill:#363f1d;fill-opacity:1;fill-rule:evenodd;stroke:none;stroke-width:0.05291667;stroke-linecap:butt;stroke-linejoin:miter;stroke-miterlimit:4.375;stroke-dasharray:none;stroke-opacity:1" />
      <path
         inkscape:connector-curvature="0"
         id="path1023"
         d="m 132.29167,221.74762 -19.69284,10.01457 v 11.65941 l 12.56426,-6.38931 v 8.0708 l -12.56426,6.3893 v 11.65941 l 19.69284,-10.01458 z"
         style="fill:#363f1d;fill-opacity:1;fill-rule:evenodd;stroke:none;stroke-width:0.05291667;stroke-linecap:butt;stroke-linejoin:miter;stroke-miterlimit:4.375;stroke-dasharray:none;stroke-opacity:1"
         sodipodi:nodetypes="cccccccc" />
      <path
         sodipodi:nodetypes="cc"
         inkscape:connector-curvature="0"
         id="path4953"
         d="m 79.282584,260.36415 6.644486,4.69186 -12.564265,6.3893 v -8.07078 z"
         style="fill:#13160a;fill-opacity:1;fill-rule:evenodd;stroke:none;stroke-width:0.05291667;stroke-linecap:butt;stroke-linejoin:miter;stroke-miterlimit:4.375;stroke-dasharray:none;stroke-opacity:1" />
      <path
         style="fill:#566830;fill-opacity:1;fill-rule:evenodd;stroke:none;stroke-width:0.05291667;stroke-linecap:butt;stroke-linejoin:miter;stroke-miterlimit:4.375;stroke-dasharray:none;stroke-opacity:1"
         d="m 80.627814,241.58383 -19.692841,10.01457 5.299254,3.74198 19.69284,-10.01457 z"
         id="path4958"
         inkscape:connector-curvature="0"
         sodipodi:nodetypes="cc" />
      <path
         style="fill:#363f1d;fill-opacity:1;fill-rule:evenodd;stroke:none;stroke-width:0.05291667;stroke-linecap:butt;stroke-linejoin:miter;stroke-miterlimit:4.375;stroke-dasharray:none;stroke-opacity:1"
         d="m 51.075718,244.63599 v 3.9377 l 19.692186,-10.01481 v -3.9377 z"
         id="path5016"
         inkscape:connector-curvature="0"
         sodipodi:nodetypes="cccc" />
      <path
         inkscape:connector-curvature="0"
         id="path847"
         d="m 102.83673,228.75143 c -2.41812,-1.71106 -4.428154,-3.09317 -4.466741,-3.07135 -0.03859,0.0218 -0.07016,7.9e-4 -0.07016,-0.0467 0,-0.0475 -0.170929,-0.20479 -0.379841,-0.34957 l -0.379842,-0.26323 0.239525,-0.14533 c 0.131739,-0.0799 0.239525,-0.18017 0.239525,-0.22274 0,-0.0426 0.04209,-0.0514 0.09354,-0.0196 0.05145,0.0318 0.09355,0.0108 0.09355,-0.0468 0,-0.0575 0.04209,-0.0786 0.09354,-0.0468 0.05145,0.0318 0.09354,0.0107 0.09354,-0.0468 0,-0.0575 0.0421,-0.0786 0.09355,-0.0468 0.05145,0.0318 0.09354,0.0107 0.09354,-0.0468 0,-0.0575 0.0421,-0.0786 0.09354,-0.0468 0.05145,0.0318 0.09355,0.0107 0.09355,-0.0468 0,-0.0575 0.0421,-0.0786 0.09354,-0.0468 0.05145,0.0318 0.09354,0.0107 0.09354,-0.0468 0,-0.0575 0.0421,-0.0786 0.09355,-0.0468 0.05145,0.0318 0.09354,0.0108 0.09354,-0.0468 0,-0.0575 0.0421,-0.0786 0.09354,-0.0468 0.05145,0.0318 0.09355,0.0107 0.09355,-0.0468 0,-0.0575 0.0421,-0.0786 0.09354,-0.0468 0.05145,0.0318 0.09354,0.0107 0.09354,-0.0468 0,-0.0575 0.0421,-0.0786 0.09355,-0.0468 0.05145,0.0318 0.09354,0.006 0.09354,-0.0568 0,-0.0631 0.02588,-0.0888 0.05748,-0.0572 0.0804,0.0804 3.590754,-1.68871 3.590754,-1.80963 0,-0.0542 0.0421,-0.0726 0.0936,-0.0408 0.0514,0.0318 0.0935,0.0107 0.0935,-0.0468 0,-0.0575 0.0421,-0.0786 0.0936,-0.0468 0.0515,0.0318 0.0935,0.0108 0.0935,-0.0468 0,-0.0575 0.0421,-0.0786 0.0936,-0.0468 0.0514,0.0318 0.0935,0.0107 0.0935,-0.0468 0,-0.0575 0.0421,-0.0786 0.0935,-0.0468 0.0515,0.0318 0.0936,0.0107 0.0936,-0.0468 0,-0.0575 0.0421,-0.0786 0.0935,-0.0468 0.0515,0.0318 0.0936,0.0107 0.0936,-0.0468 0,-0.0575 0.0421,-0.0786 0.0935,-0.0468 0.0514,0.0318 0.0935,0.0107 0.0935,-0.0468 0,-0.0575 0.0421,-0.0786 0.0936,-0.0468 0.0515,0.0318 0.0935,0.0107 0.0935,-0.0468 0,-0.0575 0.0421,-0.0786 0.0936,-0.0468 0.0515,0.0318 0.0935,0.0107 0.0935,-0.0468 0,-0.0575 0.0387,-0.0807 0.086,-0.0514 0.0473,0.0292 0.15253,-0.0134 0.23386,-0.0947 0.0813,-0.0813 0.14785,-0.12359 0.14785,-0.0939 0,0.0297 0.79981,-0.3464 1.77735,-0.83568 0.97753,-0.48929 1.77734,-0.93398 1.77734,-0.98821 0,-0.0542 0.0421,-0.0726 0.0935,-0.0408 0.0515,0.0318 0.0935,0.0107 0.0935,-0.0468 0,-0.0575 0.0421,-0.0786 0.0935,-0.0468 0.0515,0.0318 0.0935,0.0107 0.0935,-0.0468 0,-0.0575 0.0421,-0.0786 0.0935,-0.0468 0.0515,0.0318 0.0935,0.0107 0.0935,-0.0468 0,-0.0575 0.0421,-0.0786 0.0935,-0.0468 0.0515,0.0318 0.0935,0.0107 0.0935,-0.0468 0,-0.0575 0.0421,-0.0786 0.0935,-0.0468 0.0515,0.0318 0.0935,0.0107 0.0935,-0.0468 0,-0.0575 0.0421,-0.0786 0.0936,-0.0468 0.0514,0.0318 0.0935,0.0107 0.0935,-0.0468 0,-0.0575 0.0421,-0.0786 0.0936,-0.0468 0.0514,0.0318 0.0935,0.0107 0.0935,-0.0468 0,-0.0575 0.0421,-0.0786 0.0935,-0.0468 0.0515,0.0318 0.0936,0.0107 0.0936,-0.0468 0,-0.0575 0.0421,-0.0786 0.0935,-0.0468 0.0515,0.0318 0.0936,0.006 0.0936,-0.0568 0,-0.0631 0.0264,-0.0882 0.0587,-0.0559 0.0794,0.0793 3.77658,-1.78924 3.77658,-1.90868 0,-0.0519 0.0421,-0.0683 0.0936,-0.0365 0.0515,0.0318 0.0935,0.0107 0.0935,-0.0468 0,-0.0575 0.0421,-0.0786 0.0936,-0.0468 0.0515,0.0318 0.0935,0.0107 0.0935,-0.0468 0,-0.0575 0.0421,-0.0786 0.0935,-0.0468 0.0514,0.0318 0.0935,0.0107 0.0935,-0.0468 0,-0.0575 0.0421,-0.0786 0.0935,-0.0468 0.0514,0.0318 0.0935,0.0107 0.0935,-0.0468 0,-0.0575 0.0421,-0.0786 0.0935,-0.0468 0.0514,0.0318 0.0935,0.0107 0.0935,-0.0468 0,-0.0575 0.0421,-0.0786 0.0935,-0.0468 0.0515,0.0318 0.0935,0.0107 0.0935,-0.0468 0,-0.0575 0.0421,-0.0786 0.0935,-0.0468 0.0515,0.0318 0.0935,0.0108 0.0935,-0.0468 0,-0.0575 0.0421,-0.0786 0.0935,-0.0468 0.0515,0.0318 0.0936,0.0107 0.0936,-0.0468 0,-0.0575 0.0421,-0.0786 0.0935,-0.0468 0.0515,0.0318 0.0935,0.006 0.0935,-0.0568 0,-0.0631 0.0262,-0.0885 0.0582,-0.0565 0.032,0.032 0.26509,-0.0467 0.518,-0.17485 0.25291,-0.12816 0.51088,-0.20181 0.57326,-0.16367 0.0624,0.0381 1.55787,1.09036 3.32329,2.33829 l 3.20988,2.26896 -1.24544,0.62265 c -0.685,0.34245 -2.04525,1.03302 -3.02279,1.53459 -0.97754,0.50156 -3.29276,1.68076 -5.14494,2.62043 -1.85217,0.93967 -4.19799,2.13451 -5.21291,2.65519 l -1.84532,0.94669 -0.0256,1.88417 -0.0255,1.88418 z"
         style="opacity:1;fill:none;fill-opacity:1;stroke:none;stroke-width:0.05291667;stroke-linecap:butt;stroke-linejoin:miter;stroke-miterlimit:4.375;stroke-dasharray:none;stroke-opacity:1" />
      <path
         style="fill:#dcdcdc;fill-opacity:1;fill-rule:evenodd;stroke:none;stroke-width:0.05291667;stroke-linecap:butt;stroke-linejoin:miter;stroke-miterlimit:4.375;stroke-dasharray:none;stroke-opacity:1"
         d="m 83.078355,243.31424 17.072895,-8.68223 8.86278,6.25826 -23.08696,11.74062 -3e-6,-7.30508 z"
         id="path1114"
         inkscape:connector-curvature="0"
         sodipodi:nodetypes="cccccc" />
      <path
         sodipodi:nodetypes="cccc"
         inkscape:connector-curvature="0"
         id="path5004"
         d="m 97.439847,221.05792 v 3.9377 l 19.692183,-10.01481 v -3.9377 z"
         style="fill:#363f1d;fill-opacity:1;fill-rule:evenodd;stroke:none;stroke-width:0.05291667;stroke-linecap:butt;stroke-linejoin:miter;stroke-miterlimit:4.375;stroke-dasharray:none;stroke-opacity:1" />
      <path
         inkscape:connector-curvature="0"
         id="path930"
         d="M 97.439847,224.99562 117.13203,214.98081"
         style="fill:none;fill-rule:evenodd;stroke:#363f1d;stroke-width:0.52916666;stroke-linecap:butt;stroke-linejoin:miter;stroke-opacity:1;stroke-miterlimit:4;stroke-dasharray:none" />
      <path
         style="fill:#4b5a2a;fill-opacity:1;fill-rule:evenodd;stroke:none;stroke-width:0.05291667;stroke-linecap:butt;stroke-linejoin:miter;stroke-miterlimit:4.375;stroke-dasharray:none;stroke-opacity:1"
         d="m 126.99176,221.9431 -19.69218,10.01481 -9.859733,-6.96229 19.692183,-10.01481 z"
         id="path5012"
         inkscape:connector-curvature="0"
         sodipodi:nodetypes="ccccc" />
      <path
         id="path5061"
         d="m 87.899729,218.2948 c -9.481614,-0.13092 -19.936319,5.45295 -20.25561,11.10172 6.650858,-3.87654 17.224798,-5.55542 23.721712,-0.96787 l 21.232889,14.99336 v -11.66016 l -5.29849,-3.7413 v 3.93729 l -9.859998,-6.96173 v -3.93863 c -2.674811,-1.88878 -6.041719,-2.71437 -9.540503,-2.76268 z"
         style="display:inline;fill:#1f2410;fill-opacity:1;fill-rule:evenodd;stroke:none;stroke-width:0.05291667;stroke-linecap:butt;stroke-linejoin:miter;stroke-miterlimit:4.375;stroke-dasharray:none;stroke-opacity:1;paint-order:stroke fill markers"
         inkscape:connector-curvature="0" />
      <path
         sodipodi:nodetypes="cc"
         inkscape:connector-curvature="0"
         id="path975"
         d="m 126.99242,218.00563 -19.69284,10.01458 5.29925,3.74198 19.69284,-10.01457 z"
         style="fill:#566830;fill-opacity:1;fill-rule:evenodd;stroke:none;stroke-width:0.05291667;stroke-linecap:butt;stroke-linejoin:miter;stroke-miterlimit:4.375;stroke-dasharray:none;stroke-opacity:1" />
      <path
         sodipodi:nodetypes="ccccccccc"
         style="fill:#404c24;fill-opacity:1;fill-rule:evenodd;stroke:none;stroke-width:0.05291667;stroke-linecap:butt;stroke-linejoin:miter;stroke-miterlimit:4.375;stroke-dasharray:none;stroke-opacity:1"
         d="m 66.234227,286.72999 v -31.3896 l -5.299251,-3.74199 4.7e-4,3.93759 -9.859728,-6.9623 v -3.9377 L -8.158092e-7,208.57013 v 31.38962 z"
         id="path5059"
         inkscape:connector-curvature="0" />
    </g>
  </g>
</svg>
